<?xml version="1.0" standalone="no"?>
<!DOCTYPE svg PUBLIC "-//W3C//DTD SVG 20010904//EN"
 "http://www.w3.org/TR/2001/REC-SVG-20010904/DTD/svg10.dtd">
<svg version="1.0" xmlns="http://www.w3.org/2000/svg"
 width="1000.000000pt" height="1000.000000pt" viewBox="0 0 1000.000000 1000.000000"
 preserveAspectRatio="xMidYMid meet">

<g transform="translate(0.000000,1000.000000) scale(0.100000,-0.100000)"
fill="#000000" stroke="none">
<path d="M6432 7422 c-9 -6 -5 -22 19 -66 17 -31 34 -55 36 -52 3 3 0 12 -7
21 -7 9 -10 18 -7 21 9 10 27 -34 21 -50 -4 -9 -1 -22 5 -30 6 -7 42 -69 79
-137 38 -68 78 -140 89 -160 11 -19 28 -50 38 -69 13 -26 19 -30 27 -19 7 10
8 8 3 -7 -3 -13 2 -31 16 -47 11 -15 18 -27 15 -27 -4 0 4 -17 17 -37 13 -21
35 -60 49 -88 47 -95 83 -145 97 -136 10 6 -7 44 -70 159 -46 83 -87 148 -91
146 -4 -3 -8 4 -8 15 0 11 -10 36 -21 56 -17 28 -24 33 -31 23 -7 -9 -8 -8 -4
5 6 18 -7 46 -116 242 -31 55 -66 119 -79 142 -13 24 -29 43 -36 43 -6 0 -15
4 -18 10 -4 6 1 7 11 3 15 -6 15 -4 -1 20 -9 15 -18 27 -19 27 0 0 -7 -4 -14
-8z m145 -264 c-3 -8 -6 -5 -6 6 -1 11 2 17 5 13 3 -3 4 -12 1 -19z m26 -28
c3 -11 1 -18 -4 -14 -5 3 -9 12 -9 20 0 20 7 17 13 -6z m46 -75 c0 -5 -6 -1
-14 9 -8 11 -15 24 -15 30 0 5 7 1 15 -10 8 -10 14 -23 14 -29z m16 -35 c3 -5
1 -10 -4 -10 -6 0 -11 5 -11 10 0 6 2 10 4 10 3 0 8 -4 11 -10z m25 -55 c0 -5
-5 -3 -10 5 -5 8 -10 20 -10 25 0 6 5 3 10 -5 5 -8 10 -19 10 -25z m127 -227
c-3 -8 -6 -5 -6 6 -1 11 2 17 5 13 3 -3 4 -12 1 -19z m48 -73 l18 -30 -21 19
c-12 11 -22 26 -22 34 0 17 -1 18 25 -23z m35 -79 c0 -12 -5 -7 -19 24 -11 24
-11 24 3 6 9 -11 16 -24 16 -30z"/>
<path d="M7457 7244 c-4 -4 -17 -8 -29 -10 -37 -4 -78 -23 -78 -35 0 -7 -3
-10 -6 -6 -3 3 -24 -10 -45 -30 -28 -26 -38 -42 -33 -55 3 -12 1 -18 -7 -16
-22 5 -39 -62 -34 -136 2 -38 8 -72 13 -75 5 -3 12 -16 16 -28 14 -46 111
-118 176 -131 56 -11 119 -3 168 22 49 25 74 46 53 46 -5 0 -13 -4 -16 -10 -3
-5 -11 -10 -18 -10 -24 0 14 24 39 25 22 0 32 10 57 58 45 85 48 156 11 231
-33 67 -96 128 -151 144 -60 17 -108 24 -116 16z m98 -24 c13 -6 15 -9 5 -9
-8 0 -22 4 -30 9 -18 12 -2 12 25 0z m-128 -6 c-3 -3 -12 -4 -19 -1 -8 3 -5 6
6 6 11 1 17 -2 13 -5z m-73 -84 c-5 -5 -10 3 -11 18 -1 22 0 24 9 8 6 -10 6
-22 2 -26z m307 23 c13 -16 12 -17 -3 -4 -10 7 -18 15 -18 17 0 8 8 3 21 -13z
m63 -99 c3 -8 2 -12 -4 -9 -6 3 -10 10 -10 16 0 14 7 11 14 -7z m-467 -86 c-3
-8 -6 -5 -6 6 -1 11 2 17 5 13 3 -3 4 -12 1 -19z m20 -10 c-3 -8 -6 -5 -6 6
-1 11 2 17 5 13 3 -3 4 -12 1 -19z m424 -101 c-10 -9 -11 -8 -5 6 3 10 9 15
12 12 3 -3 0 -11 -7 -18z m-427 -3 c3 -8 2 -12 -4 -9 -6 3 -10 10 -10 16 0 14
7 11 14 -7z m81 -64 c-3 -5 -12 -10 -18 -10 -7 0 -6 4 3 10 19 12 23 12 15 0z
m80 -1 c11 -16 1 -19 -13 -3 -7 8 -8 14 -3 14 5 0 13 -5 16 -11z"/>
<path d="M7800 6828 c-20 -7 -22 -11 -10 -19 12 -8 10 -9 -6 -4 -16 4 -27 -3
-48 -33 -14 -21 -26 -42 -26 -48 0 -5 -7 -21 -14 -37 -14 -26 -14 -27 4 -17
12 7 17 17 14 28 -5 13 -4 14 4 3 8 -12 13 -11 31 1 11 8 18 18 13 23 -4 5 -1
5 6 1 7 -4 28 2 48 13 19 12 33 17 30 13 -3 -4 13 -8 35 -9 22 0 45 -6 53 -12
7 -6 15 -10 17 -8 2 1 3 1 2 -1 -1 -2 9 -18 21 -37 24 -34 26 -77 7 -127 -11
-29 -19 -35 -141 -114 -47 -30 -84 -59 -82 -65 1 -6 -2 -8 -8 -4 -13 8 -76
-30 -84 -51 -3 -9 -6 -35 -6 -58 0 -23 -5 -69 -11 -102 -7 -32 -13 -68 -14
-79 -2 -24 -7 -24 -155 5 -58 11 -121 20 -141 20 -20 0 -39 3 -42 7 -11 10
-58 14 -95 8 -21 -4 -49 -22 -78 -51 -45 -47 -51 -58 -34 -69 6 -3 10 -12 10
-18 0 -7 -5 -4 -11 6 -10 18 -12 18 -35 -4 -15 -14 -22 -29 -19 -40 3 -10 1
-20 -4 -24 -7 -4 -8 1 -4 12 6 16 5 16 -11 4 -9 -8 -15 -22 -13 -32 3 -13 0
-16 -11 -12 -11 5 -14 2 -9 -10 4 -11 1 -17 -8 -17 -19 0 -108 -117 -99 -132
4 -6 3 -8 -4 -4 -6 3 -21 -8 -33 -26 -13 -18 -31 -42 -41 -53 -73 -82 -127
-160 -129 -191 -4 -41 2 -73 16 -87 8 -8 12 -17 9 -20 -10 -9 48 -47 83 -53
59 -11 110 13 159 75 81 104 85 111 78 122 -4 7 -3 9 3 6 14 -9 76 70 67 86
-4 6 -4 9 0 5 11 -10 48 31 40 44 -4 6 -3 8 4 4 6 -3 19 5 29 18 45 59 58 80
55 88 -1 5 2 7 7 4 5 -4 18 7 27 24 10 16 22 30 27 30 5 0 7 6 4 13 -3 9 7 12
34 12 22 0 39 -2 39 -5 0 -3 10 -7 23 -7 12 -1 33 -4 47 -7 22 -5 21 -3 -5 9
-16 8 -23 14 -15 15 9 0 24 -6 35 -14 21 -14 95 -33 159 -41 21 -3 42 -8 47
-11 6 -3 7 -38 4 -77 -24 -337 -25 -329 12 -402 17 -33 48 -95 68 -137 21 -43
42 -75 48 -71 6 3 7 2 4 -4 -9 -14 57 -135 68 -126 4 5 5 3 1 -4 -10 -19 54
-138 66 -121 6 9 7 6 3 -9 -7 -26 47 -127 80 -149 43 -28 85 -34 124 -18 51
21 80 51 74 77 -3 16 -2 18 5 9 12 -17 22 6 22 51 0 36 -38 120 -51 112 -5 -4
-6 0 -3 8 7 18 -60 140 -71 129 -4 -4 -5 -2 -1 5 6 10 -10 60 -24 73 -3 3 -14
24 -25 47 -11 22 -24 39 -29 36 -5 -4 -6 -1 -2 6 4 6 -3 26 -16 44 -13 17 -22
33 -20 35 1 1 -12 30 -29 64 l-31 61 12 184 c11 182 11 184 45 242 28 47 80
185 89 236 1 6 5 19 9 30 8 25 15 63 27 140 12 75 12 77 1 70 -5 -3 -13 0 -17
6 -4 7 -3 9 3 6 6 -4 14 0 17 9 16 41 -4 306 -23 312 -6 2 -7 10 -4 19 5 12 3
14 -7 8 -9 -5 -11 -4 -6 4 12 18 -42 86 -100 127 -38 26 -122 38 -164 22z m67
-14 c-3 -3 -12 -4 -19 -1 -8 3 -5 6 6 6 11 1 17 -2 13 -5z m-97 -55 c0 -5 -4
-7 -10 -4 -5 3 -10 1 -10 -6 0 -7 -3 -10 -6 -6 -8 7 4 27 17 27 5 0 9 -5 9
-11z m35 -9 c-3 -5 -11 -10 -16 -10 -6 0 -7 5 -4 10 3 6 11 10 16 10 6 0 7 -4
4 -10z m228 -26 c26 -35 17 -38 -11 -3 -13 16 -20 29 -15 29 4 0 16 -12 26
-26z m-18 -56 l16 -33 -20 25 c-20 24 -26 40 -16 40 2 0 12 -15 20 -32z m-24
-141 c-10 -9 -11 -8 -5 6 3 10 9 15 12 12 3 -3 0 -11 -7 -18z m106 -39 c-3 -7
-5 -2 -5 12 0 14 2 19 5 13 2 -7 2 -19 0 -25z m-106 12 c9 13 10 13 6 0 -2 -8
-10 -15 -17 -15 -7 0 -15 7 -17 15 -4 13 -3 13 6 0 10 -13 12 -13 22 0z m-106
-78 c-3 -3 -11 0 -18 7 -9 10 -8 11 6 5 10 -3 15 -9 12 -12z m-155 -72 c0 -5
-5 -10 -11 -10 -5 0 -7 5 -4 10 3 6 8 10 11 10 2 0 4 -4 4 -10z m-485 -240 c3
-5 -1 -10 -10 -10 -9 0 -13 5 -10 10 3 6 8 10 10 10 2 0 7 -4 10 -10z m382
-86 c-3 -3 -12 -4 -19 -1 -8 3 -5 6 6 6 11 1 17 -2 13 -5z m-570 -96 c-3 -8
-6 -5 -6 6 -1 11 2 17 5 13 3 -3 4 -12 1 -19z m63 8 c0 -3 -4 -8 -10 -11 -5
-3 -10 -1 -10 4 0 6 5 11 10 11 6 0 10 -2 10 -4z m482 -131 c0 -5 -5 -10 -11
-12 -8 -1 -7 0 0 4 8 4 7 8 -2 15 -11 8 -11 9 -1 6 8 -2 14 -8 14 -13z m-662
-4 c0 -5 -7 -12 -16 -15 -14 -5 -15 -4 -4 9 14 17 20 19 20 6z m290 -21 c0 -5
-5 -10 -11 -10 -5 0 -7 5 -4 10 3 6 8 10 11 10 2 0 4 -4 4 -10z m-460 -195
c-7 -9 -15 -13 -19 -10 -3 3 1 10 9 15 21 14 24 12 10 -5z m20 -55 c0 -5 -2
-10 -4 -10 -3 0 -8 5 -11 10 -3 6 -1 10 4 10 6 0 11 -4 11 -10z m-86 -37 c-10
-23 -14 -51 -10 -73 4 -24 3 -30 -4 -20 -14 22 -12 67 5 100 22 42 27 37 9 -7z
m190 -132 c3 -5 -1 -14 -8 -20 -12 -10 -14 -9 -11 6 2 10 4 19 4 21 2 5 10 2
15 -7z m-159 -19 c-3 -3 -11 0 -18 7 -9 10 -8 11 6 5 10 -3 15 -9 12 -12z
m112 2 c-3 -3 -12 -4 -19 -1 -8 3 -5 6 6 6 11 1 17 -2 13 -5z m-70 -20 c-3 -3
-12 -4 -19 -1 -8 3 -5 6 6 6 11 1 17 -2 13 -5z m58 -4 c-27 -12 -43 -12 -25 0
8 5 22 9 30 9 10 0 8 -3 -5 -9z m882 -92 c-3 -8 -6 -5 -6 6 -1 11 2 17 5 13 3
-3 4 -12 1 -19z m32 -67 c-2 -6 -10 2 -17 17 -11 25 -11 25 4 10 9 -9 15 -21
13 -27z m301 -39 c0 -4 -9 7 -20 23 -11 17 -20 35 -20 40 0 6 9 -5 20 -23 11
-18 20 -36 20 -40z m-282 -17 c-3 -3 -9 2 -12 12 -6 14 -5 15 5 6 7 -7 10 -15
7 -18z m32 -5 c6 -11 8 -20 6 -20 -3 0 -10 9 -16 20 -6 11 -8 20 -6 20 3 0 10
-9 16 -20z m28 -5 c-3 -3 -9 2 -12 12 -6 14 -5 15 5 6 7 -7 10 -15 7 -18z m79
-227 c2 -17 0 -19 -7 -8 -5 8 -6 18 -4 22 8 12 10 10 11 -14z m300 -90 c-3 -8
-6 -5 -6 6 -1 11 2 17 5 13 3 -3 4 -12 1 -19z m-213 -74 c5 -14 4 -15 -9 -4
-17 14 -19 20 -6 20 5 0 12 -7 15 -16z m181 6 c-3 -5 -12 -10 -18 -10 -7 0 -6
4 3 10 19 12 23 12 15 0z m-58 -16 c-3 -3 -12 -4 -19 -1 -8 3 -5 6 6 6 11 1
17 -2 13 -5z m23 -14 c0 -5 -5 -10 -11 -10 -5 0 -7 5 -4 10 3 6 8 10 11 10 2
0 4 -4 4 -10z"/>
<path d="M7813 6689 c-18 -11 -30 -25 -27 -30 3 -5 -3 -6 -12 -2 -13 5 -15 3
-9 -7 5 -9 4 -11 -4 -6 -6 4 -47 -15 -94 -46 -45 -30 -99 -64 -120 -77 -20
-12 -35 -26 -33 -29 2 -4 -7 -7 -20 -7 -13 0 -24 3 -24 6 0 3 -89 7 -197 7
-109 1 -217 5 -241 8 -34 5 -47 2 -64 -12 -12 -11 -18 -13 -14 -7 5 9 2 11 -9
7 -21 -8 -45 -56 -45 -89 0 -17 11 -37 29 -54 l30 -28 291 -7 c286 -7 292 -6
326 14 19 12 32 26 29 31 -4 5 -1 17 5 26 9 15 10 14 4 -6 -8 -31 -1 -28 107
40 102 63 132 86 122 91 -5 3 -2 3 5 2 24 -7 89 44 101 78 8 22 8 34 1 36 -5
2 -8 7 -5 12 9 15 -39 60 -70 65 -21 4 -40 -1 -62 -16z m72 1 c13 -6 15 -9 5
-9 -8 0 -22 4 -30 9 -18 12 -2 12 25 0z m-55 -14 c0 -2 -7 -7 -16 -10 -8 -3
-12 -2 -9 4 6 10 25 14 25 6z m-20 -130 c0 -2 -7 -7 -16 -10 -8 -3 -12 -2 -9
4 6 10 25 14 25 6z m-33 -58 c-3 -7 -5 -2 -5 12 0 14 2 19 5 13 2 -7 2 -19 0
-25z m-846 -51 c-10 -9 -11 -8 -5 6 3 10 9 15 12 12 3 -3 0 -11 -7 -18z m16
-39 c-3 -8 -6 -5 -6 6 -1 11 2 17 5 13 3 -3 4 -12 1 -19z m-2 -28 c3 -5 1 -10
-4 -10 -6 0 -11 5 -11 10 0 6 2 10 4 10 3 0 8 -4 11 -10z"/>
<path d="M7053 6262 c10 -10 17 -23 17 -28 0 -5 8 -19 18 -31 12 -16 21 -20
31 -14 12 8 11 15 -6 43 -11 18 -25 32 -32 31 -6 -2 -11 2 -11 7 0 6 -7 10
-17 10 -15 0 -15 -1 0 -18z m46 -42 c11 -24 11 -24 -3 -6 -9 11 -16 24 -16 30
0 12 5 7 19 -24z"/>
<path d="M6746 6158 c-44 -155 -57 -210 -51 -231 4 -15 3 -18 -3 -9 -7 10 -11
6 -15 -15 -3 -15 -9 -37 -13 -47 -5 -13 -4 -17 4 -12 6 3 14 1 18 -5 4 -8 3
-9 -5 -5 -15 10 -51 -71 -53 -119 -1 -19 -6 -35 -11 -35 -6 0 -8 -3 -4 -6 3
-4 0 -22 -8 -41 -8 -20 -15 -45 -14 -57 0 -15 2 -16 6 -6 31 80 177 432 189
457 9 17 13 37 9 45 -5 7 -4 10 0 5 10 -8 58 103 49 112 -3 3 -9 -1 -14 -9 -8
-13 -10 -13 -10 1 0 14 -26 28 -52 29 -4 0 -13 -24 -22 -52z m42 9 c13 4 14 3
3 -5 -8 -6 -11 -18 -7 -33 5 -17 4 -20 -2 -9 -5 8 -12 26 -16 40 -3 14 -3 20
0 13 3 -7 13 -9 22 -6z m-14 -83 c3 -8 2 -12 -4 -9 -6 3 -10 10 -10 16 0 14 7
11 14 -7z m-27 -126 c-3 -8 -6 -5 -6 6 -1 11 2 17 5 13 3 -3 4 -12 1 -19z
m-70 -160 c-3 -8 -6 -5 -6 6 -1 11 2 17 5 13 3 -3 4 -12 1 -19z"/>
<path d="M6173 5953 c-18 -9 -33 -21 -33 -25 0 -5 5 -6 12 -2 6 4 8 3 5 -3 -4
-6 24 -76 62 -154 37 -79 95 -200 128 -269 33 -69 63 -135 67 -147 4 -13 11
-23 16 -23 10 0 -19 92 -32 101 -5 3 -6 14 -2 24 5 12 4 16 -4 11 -6 -4 -11 1
-10 11 0 24 -5 40 -47 163 -20 58 -37 110 -39 115 -3 14 -46 147 -53 165 -4 8
-5 19 -4 23 1 5 -9 6 -21 2 -22 -6 -22 -6 -4 9 26 21 2 20 -41 -1z m47 -27 c0
-3 -4 -8 -10 -11 -5 -3 -10 -1 -10 4 0 6 5 11 10 11 6 0 10 -2 10 -4z m-16
-82 c3 -8 2 -12 -4 -9 -6 3 -10 10 -10 16 0 14 7 11 14 -7z m63 -46 c-3 -8 -6
-5 -6 6 -1 11 2 17 5 13 3 -3 4 -12 1 -19z m-13 -40 c-3 -4 -9 -8 -15 -8 -5 0
-9 4 -9 8 0 5 7 9 15 9 8 0 12 -4 9 -9z m55 -133 c0 -5 -8 6 -19 25 -11 19
-19 40 -19 45 0 6 8 -6 19 -25 11 -19 19 -39 19 -45z"/>
<path d="M1751 5696 c-13 -7 -30 -24 -37 -37 -16 -29 -19 -202 -3 -231 17 -32
74 -51 114 -38 36 12 65 47 65 80 0 28 -33 23 -38 -5 -5 -27 -30 -45 -63 -45
-33 0 -45 14 -52 63 l-6 37 50 0 c42 0 55 5 80 29 47 48 38 116 -21 146 -35
18 -57 19 -89 1z m87 -38 c28 -35 13 -98 -24 -99 -85 -4 -79 -7 -77 40 1 24 7
49 14 57 14 17 73 18 87 2z"/>
<path d="M2453 5691 c-18 -11 -35 -31 -38 -43 -2 -13 -6 -112 -7 -221 l-3
-197 38 0 37 0 0 -140 c0 -117 2 -140 15 -140 12 0 15 24 17 138 l3 137 38 3
c24 2 37 8 37 18 0 11 -16 14 -70 14 l-70 0 -1 48 c0 26 -2 58 -5 71 -4 21 -1
22 18 16 50 -17 90 -10 115 21 22 27 24 36 21 136 -3 93 -6 110 -24 128 -30
31 -82 35 -121 11z m97 -36 c17 -20 17 -200 0 -220 -15 -18 -74 -20 -88 -2
-16 19 -17 203 -2 222 16 19 74 19 90 0z"/>
<path d="M1440 5574 c0 -125 0 -126 29 -155 27 -26 36 -29 95 -29 l66 0 0 -35
c0 -24 5 -35 15 -35 11 0 15 12 15 50 0 38 -4 50 -15 50 -13 0 -15 22 -15 140
0 133 -1 140 -20 140 -19 0 -20 -7 -20 -140 l0 -140 -33 0 c-18 0 -43 7 -55
16 -21 14 -22 22 -22 140 0 117 -1 124 -20 124 -19 0 -20 -7 -20 -126z"/>
<path d="M1955 5678 c-3 -13 -4 -81 -3 -153 3 -113 5 -130 20 -133 15 -3 18 7
20 70 3 72 3 73 32 76 15 2 39 1 52 -2 22 -6 24 -11 24 -76 0 -63 2 -70 20
-70 19 0 20 7 20 155 0 148 -1 155 -20 155 -18 0 -20 -7 -20 -65 l0 -65 -55 0
-55 0 0 65 c0 51 -3 65 -15 65 -8 0 -17 -10 -20 -22z"/>
<path d="M2190 5685 c0 -10 11 -15 35 -15 l35 0 0 -140 c0 -133 1 -140 20
-140 19 0 20 7 20 140 l0 140 35 0 c24 0 35 5 35 15 0 12 -17 15 -90 15 -73 0
-90 -3 -90 -15z"/>
<path d="M7330 5381 c-41 -15 -82 -31 -90 -34 -8 -4 -57 -22 -108 -40 -51 -18
-89 -37 -85 -42 5 -4 3 -5 -4 -2 -6 4 -32 -2 -57 -12 -25 -11 -64 -27 -88 -35
-136 -48 -148 -60 -31 -32 133 33 182 45 253 64 41 11 97 24 124 27 32 5 44
10 35 16 -9 6 -4 8 16 7 33 -1 81 7 118 21 14 6 28 7 31 4 3 -4 6 -1 6 5 0 7
-5 12 -11 12 -5 0 -8 4 -5 9 3 4 -1 16 -8 26 -13 18 -14 18 -20 -3 -4 -12 -12
-22 -17 -22 -10 0 10 41 26 52 18 14 -8 7 -85 -21z m36 -13 c4 -7 3 -8 -5 -4
-6 4 -18 2 -26 -4 -9 -8 -15 -8 -15 -2 0 9 15 19 32 21 4 1 10 -4 14 -11z m53
-32 c-2 -2 -17 -6 -34 -10 -22 -5 -26 -4 -15 4 14 9 59 15 49 6z m-320 -80
c-2 -2 -17 -6 -34 -10 -22 -5 -26 -4 -15 4 14 9 59 15 49 6z m-119 -31 c-14
-8 -29 -14 -35 -14 -5 0 1 6 15 14 14 8 30 14 35 14 6 0 -1 -6 -15 -14z"/>
<path d="M1495 5261 c-62 -26 -79 -120 -30 -165 l25 -23 -30 -54 c-35 -64 -36
-69 -12 -69 13 0 28 19 47 60 27 56 31 60 62 60 l33 0 0 -60 c0 -53 2 -60 20
-60 19 0 20 7 20 120 0 131 -9 164 -51 186 -31 16 -54 17 -84 5z m83 -43 c7
-7 12 -36 12 -65 l0 -53 -40 0 c-68 0 -105 65 -63 112 18 20 73 24 91 6z"/>
<path d="M1728 5241 l-33 -29 0 -189 c0 -171 2 -188 18 -191 15 -3 17 5 17 67
l0 69 30 -15 c25 -12 37 -12 66 -3 49 16 64 56 64 166 0 85 -1 87 -34 120 -44
44 -83 45 -128 5z m106 -27 c12 -12 16 -37 16 -109 0 -104 -10 -125 -60 -125
-46 0 -60 30 -60 132 0 97 11 118 60 118 16 0 36 -7 44 -16z"/>
<path d="M1991 5256 c-39 -21 -50 -54 -51 -144 0 -103 17 -146 65 -162 42 -14
77 -5 107 27 21 23 23 33 22 131 -1 105 -1 105 -33 134 -34 31 -71 35 -110 14z
m91 -43 c24 -22 26 -177 2 -211 -18 -26 -65 -30 -88 -6 -23 23 -23 190 1 216
20 22 61 23 85 1z"/>
<path d="M2241 5256 c-39 -22 -50 -54 -51 -149 0 -104 14 -140 63 -156 61 -20
127 24 127 84 0 24 -34 14 -38 -10 -6 -31 -22 -45 -53 -45 -49 0 -59 21 -59
125 0 105 10 125 62 125 24 0 32 -6 41 -30 7 -18 19 -30 29 -30 22 0 23 12 3
51 -24 46 -77 61 -124 35z"/>
<path d="M2632 5129 c3 -130 3 -131 32 -155 24 -21 37 -24 85 -22 l56 3 3 153
c2 131 0 152 -13 152 -13 0 -15 -21 -15 -140 l0 -140 -33 0 c-18 0 -43 7 -55
16 -21 14 -22 22 -22 140 0 119 -1 124 -21 124 -20 0 -20 -4 -17 -131z"/>
<path d="M4008 5251 c-86 -3 -158 -8 -160 -11 -9 -11 -38 -79 -38 -89 0 -6
-17 -19 -39 -30 -21 -11 -41 -26 -43 -33 -3 -7 -1 -57 3 -112 16 -213 31 -646
25 -741 -7 -121 -39 -303 -72 -405 -13 -41 -44 -110 -69 -152 -25 -42 -45 -86
-45 -96 0 -10 12 -29 26 -43 23 -22 34 -24 118 -24 84 0 97 3 161 34 178 87
307 300 345 570 12 82 14 501 4 618 l-7 71 44 6 c24 3 105 7 179 8 l135 3 6
-465 c8 -517 20 -730 46 -785 11 -23 31 -42 60 -56 84 -41 282 -35 330 10 19
18 20 37 26 387 6 316 22 728 42 1044 7 113 -5 143 -77 198 -44 33 -73 46
-125 57 -144 30 -573 47 -875 36z"/>
<path d="M5888 5210 c-160 -27 -309 -109 -423 -232 -115 -124 -172 -236 -207
-408 -27 -130 -21 -368 11 -480 78 -265 279 -449 576 -526 50 -13 106 -24 126
-24 32 0 38 4 52 38 26 60 40 182 35 309 -5 138 -28 200 -88 238 -77 49 -109
116 -110 226 0 97 22 170 66 219 44 48 90 70 148 70 44 0 45 1 56 38 22 79 42
232 43 342 2 95 -1 123 -17 158 l-19 42 -101 -1 c-56 -1 -122 -5 -148 -9z"/>
<path d="M6333 5078 c-28 -14 -58 -77 -72 -154 -17 -87 -25 -250 -17 -326 7
-65 7 -65 46 -77 53 -16 105 -77 126 -148 32 -110 -3 -261 -76 -327 -22 -20
-45 -36 -51 -36 -18 0 -69 -63 -100 -123 -44 -85 -69 -204 -69 -324 0 -151 8
-156 215 -133 211 24 355 89 480 215 204 206 285 512 220 827 -62 296 -268
518 -555 597 -82 23 -114 25 -147 9z"/>
<path d="M7272 4722 c-16 -11 -21 -34 -102 -452 -132 -686 -172 -919 -174
-1029 l-1 -83 39 -34 c53 -46 146 -74 246 -74 116 0 113 -5 165 245 58 275 81
374 87 380 2 3 23 -100 47 -228 56 -309 82 -411 112 -443 31 -33 87 -62 136
-70 48 -7 48 -8 98 186 19 74 45 167 59 205 35 100 40 150 21 215 -16 55 -23
112 -71 555 -23 221 -31 278 -56 409 -16 81 -68 137 -153 161 -33 9 -89 26
-125 37 -72 23 -304 36 -328 20z"/>
<path d="M8565 4695 c-38 -8 -100 -19 -136 -24 -76 -10 -109 -25 -109 -49 0
-9 -20 -75 -44 -147 -51 -149 -122 -380 -196 -638 -50 -176 -51 -179 -41 -255
24 -178 20 -236 -35 -465 -20 -81 -33 -155 -30 -164 14 -36 230 3 304 56 22
15 32 34 41 78 15 65 147 477 164 508 8 16 16 -20 38 -170 46 -324 56 -357
121 -392 26 -14 56 -18 143 -18 99 0 116 3 160 26 l50 25 -1 70 c0 38 -10 179
-22 314 -12 135 -31 421 -42 635 -26 492 -27 505 -51 544 -41 67 -173 95 -314
66z"/>
<path d="M1751 4655 c-210 -46 -369 -211 -407 -424 -17 -99 -17 -150 1 -257
40 -224 178 -372 400 -429 130 -33 315 -12 441 50 251 123 351 445 232 745
-63 158 -200 275 -371 315 -77 18 -211 18 -296 0z m223 -401 c82 -59 88 -224
12 -300 -43 -43 -93 -52 -143 -28 -117 58 -117 287 1 340 39 18 96 12 130 -12z"/>
<path d="M2820 4660 c-87 -3 -154 -10 -167 -18 -23 -13 -23 -15 -23 -228 0
-186 -2 -218 -16 -232 -14 -13 -16 -30 -11 -98 3 -45 13 -110 21 -145 8 -35
19 -131 25 -214 9 -143 10 -151 35 -172 14 -12 46 -25 73 -28 27 -4 68 -14 93
-23 32 -12 76 -17 155 -16 180 1 307 45 401 138 77 77 108 148 108 247 0 63
-5 86 -27 132 -65 132 -218 212 -445 232 l-83 7 3 62 3 61 90 6 c50 4 131 7
181 8 74 1 96 5 116 20 38 30 81 135 82 201 l1 55 -90 6 c-107 8 -325 8 -525
-1z m332 -741 c55 -12 118 -61 118 -92 0 -24 -56 -65 -112 -82 -29 -8 -89 -15
-135 -15 l-83 0 0 33 c0 17 3 62 7 100 l6 67 73 0 c40 0 97 -5 126 -11z"/>
</g>
</svg>
